<svg width="42" height="42" viewBox="0 0 42 42" fill="none" xmlns="http://www.w3.org/2000/svg">
<path fill-rule="evenodd" clip-rule="evenodd" d="M42 10.5C42 11.3284 41.3284 12 40.5 12H9.5C8.67157 12 8 11.3284 8 10.5C8 9.67157 8.67157 9 9.5 9H40.5C41.3284 9 42 9.67157 42 10.5Z" fill="#1C1C1C"/>
<path fill-rule="evenodd" clip-rule="evenodd" d="M42 20.5C42 21.3284 41.3284 22 40.5 22H9.5C8.67157 22 8 21.3284 8 20.5C8 19.6716 8.67157 19 9.5 19H40.5C41.3284 19 42 19.6716 42 20.5Z" fill="#1C1C1C"/>
<path fill-rule="evenodd" clip-rule="evenodd" d="M42 30.5C42 31.3284 41.3284 32 40.5 32H20.5C19.6716 32 19 31.3284 19 30.5C19 29.6716 19.6716 29 20.5 29H40.5C41.3284 29 42 29.6716 42 30.5Z" fill="#1C1C1C"/>
</svg>
